<mxfile host="app.diagrams.net" modified="2024-02-28T01:33:26.260Z" agent="Mozilla/5.0 (Macintosh; Intel Mac OS X 10_15_7) AppleWebKit/537.36 (KHTML, like Gecko) Chrome/122.0.0.0 Safari/537.36" version="23.1.7" etag="293TCYLOCYNNClcK_Hh6" type="github">
  <diagram name="第 1 页" id="QzCToPRs6P0FXCX8rPyA">
    <mxGraphModel>
      <root>
        <mxCell id="0" />
        <mxCell id="1" parent="0" />
      </root>
    </mxGraphModel>
  </diagram>
</mxfile>
